<svg width="318" height="99" viewBox="0 0 318 99" fill="none" xmlns="http://www.w3.org/2000/svg">
<path d="M123.5 29.18H121.5C121.5 28.74 121.44 28.3467 121.32 28C121.2 27.64 121.013 27.3333 120.76 27.08C120.52 26.8267 120.213 26.6333 119.84 26.5C119.467 26.3667 119.033 26.3 118.54 26.3C117.607 26.3 116.913 26.4667 116.46 26.8C116.02 27.12 115.8 27.6133 115.8 28.28C115.8 28.8133 115.993 29.1933 116.38 29.42C116.78 29.6467 117.273 29.8133 117.86 29.92C118.46 30.0267 119.107 30.12 119.8 30.2C120.493 30.28 121.133 30.4467 121.72 30.7C122.32 30.94 122.813 31.3133 123.2 31.82C123.6 32.3267 123.8 33.06 123.8 34.02C123.8 34.6867 123.667 35.2733 123.4 35.78C123.147 36.2733 122.787 36.6867 122.32 37.02C121.867 37.34 121.32 37.5867 120.68 37.76C120.04 37.92 119.34 38 118.58 38C117.82 38 117.127 37.8667 116.5 37.6C115.887 37.3333 115.367 36.9733 114.94 36.52C114.513 36.0667 114.18 35.54 113.94 34.94C113.713 34.3267 113.6 33.6867 113.6 33.02H115.6C115.6 33.94 115.873 34.6867 116.42 35.26C116.967 35.82 117.753 36.1 118.78 36.1C119.74 36.1 120.48 35.92 121 35.56C121.533 35.1867 121.8 34.6067 121.8 33.82C121.8 33.2467 121.6 32.8333 121.2 32.58C120.813 32.3133 120.32 32.1133 119.72 31.98C119.133 31.8467 118.493 31.7333 117.8 31.64C117.107 31.5467 116.46 31.38 115.86 31.14C115.273 30.8867 114.78 30.52 114.38 30.04C113.993 29.56 113.8 28.8733 113.8 27.98C113.8 27.3667 113.92 26.84 114.16 26.4C114.4 25.9467 114.727 25.5733 115.14 25.28C115.567 24.9867 116.073 24.7667 116.66 24.62C117.247 24.4733 117.887 24.4 118.58 24.4C119.34 24.4 120.027 24.5267 120.64 24.78C121.253 25.02 121.767 25.3533 122.18 25.78C122.607 26.2067 122.933 26.7133 123.16 27.3C123.387 27.8867 123.5 28.5133 123.5 29.18ZM127.791 25H129.791V35.46C129.791 35.58 129.798 35.68 129.811 35.76C129.825 35.8267 129.845 35.88 129.871 35.92C129.911 35.9467 129.965 35.9667 130.031 35.98C130.098 35.9933 130.185 36 130.291 36H134.231V38H130.691C129.705 38 128.971 37.7467 128.491 37.24C128.025 36.7333 127.791 35.9467 127.791 34.88V25ZM134.231 28V29.9H124.811V28H134.231ZM144.836 28V38H142.736V28H144.836ZM143.156 33.92C143.103 35.2933 142.776 36.3533 142.176 37.1C141.589 37.8333 140.676 38.2 139.436 38.2C138.769 38.2 138.183 38.08 137.676 37.84C137.183 37.6 136.769 37.26 136.436 36.82C136.103 36.38 135.849 35.86 135.676 35.26C135.516 34.6467 135.436 33.9733 135.436 33.24V28H137.536V32.96C137.536 33.5333 137.583 34.0467 137.676 34.5C137.769 34.9533 137.916 35.3333 138.116 35.64C138.316 35.9333 138.576 36.16 138.896 36.32C139.216 36.4667 139.603 36.54 140.056 36.54C140.363 36.54 140.669 36.5 140.976 36.42C141.296 36.3267 141.583 36.1333 141.836 35.84C142.103 35.5333 142.316 35.0933 142.476 34.52C142.649 33.9467 142.736 33.1667 142.736 32.18L143.156 33.92ZM153.961 33C153.961 33.6533 153.908 34.2933 153.801 34.92C153.708 35.5333 153.528 36.0867 153.261 36.58C152.995 37.0733 152.615 37.4667 152.121 37.76C151.641 38.0533 151.015 38.2 150.241 38.2C149.641 38.2 149.088 38.08 148.581 37.84C148.075 37.6 147.635 37.2533 147.261 36.8C146.888 36.3467 146.595 35.8 146.381 35.16C146.181 34.52 146.081 33.8 146.081 33C146.081 32.1867 146.181 31.46 146.381 30.82C146.595 30.18 146.888 29.64 147.261 29.2C147.635 28.7467 148.075 28.4 148.581 28.16C149.088 27.92 149.641 27.8 150.241 27.8C151.015 27.8 151.641 27.9467 152.121 28.24C152.615 28.5333 152.995 28.9267 153.261 29.42C153.541 29.9 153.728 30.4533 153.821 31.08C153.915 31.6933 153.961 32.3333 153.961 33ZM153.501 33C153.501 31.8267 153.268 30.94 152.801 30.34C152.348 29.74 151.668 29.44 150.761 29.44C149.855 29.44 149.168 29.74 148.701 30.34C148.248 30.94 148.021 31.8267 148.021 33C148.021 34.16 148.248 35.04 148.701 35.64C149.168 36.24 149.855 36.54 150.761 36.54C151.668 36.54 152.348 36.24 152.801 35.64C153.268 35.04 153.501 34.16 153.501 33ZM155.461 38H153.461V35.06L153.601 32.94L153.461 30.92V23.4H155.461V38ZM156.667 38V36.1H166.067V38H156.667ZM162.467 37.28H160.467V30.52C160.467 30.4 160.46 30.3067 160.447 30.24C160.447 30.1733 160.427 30.12 160.387 30.08C160.347 30.04 160.294 30.02 160.227 30.02C160.174 30.0067 160.087 30 159.967 30H156.667V28H159.487C160.487 28 161.234 28.26 161.727 28.78C162.22 29.2867 162.467 30.06 162.467 31.1V37.28ZM160.327 26.94V25H162.427V26.94H160.327ZM176.671 33C176.671 34.6267 176.258 35.9 175.431 36.82C174.605 37.74 173.458 38.2 171.991 38.2C170.538 38.2 169.391 37.74 168.551 36.82C167.711 35.9 167.291 34.6267 167.291 33C167.291 31.3867 167.711 30.12 168.551 29.2C169.391 28.2667 170.538 27.8 171.991 27.8C173.445 27.8 174.585 28.2667 175.411 29.2C176.251 30.12 176.671 31.3867 176.671 33ZM174.731 33C174.731 31.8267 174.498 30.94 174.031 30.34C173.578 29.74 172.898 29.44 171.991 29.44C171.085 29.44 170.398 29.7467 169.931 30.36C169.478 30.96 169.251 31.84 169.251 33C169.251 34.16 169.485 35.04 169.951 35.64C170.418 36.24 171.098 36.54 171.991 36.54C172.898 36.54 173.578 36.24 174.031 35.64C174.498 35.04 174.731 34.16 174.731 33Z" fill="white"/>
<path d="M265.35 77H259.11L256.91 70.6H246.59L244.31 77H238.11L249.39 47.44H254.23L265.35 77ZM255.23 65.32L251.79 55.48L248.27 65.32H255.23Z" fill="white"/>
<path d="M273.881 77H268.241V55.2H273.641V58.12C274.948 55.7733 276.948 54.6 279.641 54.6C280.521 54.6 281.401 54.76 282.281 55.08L281.801 60.48C280.841 60.1866 279.975 60.04 279.201 60.04C277.548 60.04 276.241 60.6 275.281 61.72C274.348 62.8133 273.881 64.4533 273.881 66.64V77Z" fill="white"/>
<path d="M294.735 77.48C291.375 77.48 288.602 76.4133 286.415 74.28C284.255 72.1733 283.175 69.44 283.175 66.08C283.175 62.72 284.268 59.9866 286.455 57.88C288.668 55.72 291.482 54.64 294.895 54.64C297.135 54.64 299.162 55.1733 300.975 56.24C302.815 57.3066 304.175 58.8 305.055 60.72L300.535 63.2C299.202 60.9866 297.348 59.88 294.975 59.88C293.162 59.88 291.682 60.48 290.535 61.68C289.362 62.8533 288.775 64.32 288.775 66.08C288.775 67.8933 289.348 69.3866 290.495 70.56C291.668 71.7333 293.122 72.32 294.855 72.32C296.002 72.32 297.095 72.0133 298.135 71.4C299.175 70.7866 299.935 70 300.415 69.04L304.975 71.72C304.042 73.48 302.655 74.88 300.815 75.92C299.002 76.96 296.975 77.48 294.735 77.48Z" fill="white"/>
<path d="M124.962 77.48C122.642 77.48 120.495 77 118.522 76.04C116.548 75.08 114.962 73.72 113.762 71.96L117.162 67.84C119.135 70.5866 121.748 71.96 125.002 71.96C126.228 71.96 127.242 71.6666 128.042 71.08C128.842 70.4933 129.242 69.7333 129.242 68.8C129.242 67.5733 128.348 66.5466 126.562 65.72C126.348 65.6133 125.375 65.2266 123.642 64.56C122.282 64.0266 121.122 63.4933 120.162 62.96C117.042 61.1733 115.482 58.72 115.482 55.6C115.482 53.12 116.415 51.0666 118.282 49.44C120.175 47.7866 122.602 46.96 125.562 46.96C129.402 46.96 132.642 48.2933 135.282 50.96L132.122 55.28C131.322 54.4266 130.322 53.76 129.122 53.28C127.948 52.7733 126.788 52.52 125.642 52.52C124.468 52.52 123.535 52.7866 122.842 53.32C122.175 53.8266 121.842 54.5066 121.842 55.36C121.842 56.5066 122.642 57.48 124.242 58.28L127.162 59.56C128.815 60.2533 130.015 60.7733 130.762 61.12C134.122 62.7466 135.802 65.2 135.802 68.48C135.802 71.12 134.802 73.28 132.802 74.96C130.802 76.64 128.188 77.48 124.962 77.48Z" fill="white"/>
<path d="M153.118 71.28L154.798 75.72C152.985 76.92 150.838 77.52 148.358 77.52C145.852 77.52 143.958 76.8 142.678 75.36C141.398 73.8933 140.758 71.7466 140.758 68.92V59.92H137.198V55.2H140.798V47.48H146.398V55.2H153.598V59.92H146.398V68.56C146.398 71.12 147.425 72.4 149.478 72.4C150.598 72.4 151.812 72.0266 153.118 71.28Z" fill="white"/>
<path d="M163.116 77H157.476V55.2H162.876V58.12C164.182 55.7733 166.182 54.6 168.876 54.6C169.756 54.6 170.636 54.76 171.516 55.08L171.036 60.48C170.076 60.1866 169.209 60.04 168.436 60.04C166.782 60.04 165.476 60.6 164.516 61.72C163.582 62.8133 163.116 64.4533 163.116 66.64V77Z" fill="white"/>
<path d="M190.17 57.8V55.2H195.53V77H190.17V74.48C188.303 76.5066 185.983 77.52 183.21 77.52C180.063 77.52 177.476 76.4266 175.45 74.24C173.423 72.0533 172.41 69.3066 172.41 66C172.41 62.72 173.436 60.0133 175.49 57.88C177.543 55.72 180.116 54.64 183.21 54.64C185.93 54.64 188.25 55.6933 190.17 57.8ZM190.25 66.08C190.25 64.3733 189.663 62.8933 188.49 61.64C187.343 60.4133 185.89 59.8 184.13 59.8C182.343 59.8 180.876 60.4133 179.73 61.64C178.61 62.8666 178.05 64.3466 178.05 66.08C178.05 67.84 178.623 69.3333 179.77 70.56C180.916 71.7866 182.37 72.4 184.13 72.4C185.89 72.4 187.343 71.7866 188.49 70.56C189.663 69.3066 190.25 67.8133 190.25 66.08Z" fill="white"/>
<path d="M206.321 55.2V77H200.681V55.2H206.321Z" fill="white"/>
<path d="M225.423 71.28L227.103 75.72C225.29 76.92 223.143 77.52 220.663 77.52C218.156 77.52 216.263 76.8 214.983 75.36C213.703 73.8933 213.063 71.7466 213.063 68.92V59.92H209.503V55.2H213.103V47.48H218.703V55.2H225.903V59.92H218.703V68.56C218.703 71.12 219.73 72.4 221.783 72.4C222.903 72.4 224.116 72.0266 225.423 71.28Z" fill="white"/>
<path d="M206.32 52.9995H200.68V47.4795H206.32V52.9995Z" fill="white"/>
<path d="M58.9102 9.04004C60.1119 9.04009 61.2981 9.3116 62.3809 9.83301L75.7305 16.2617C76.8133 16.7832 77.7653 17.5418 78.5146 18.4814L87.7529 30.0664C88.5022 31.006 89.0304 32.1028 89.2979 33.2744L92.5947 47.7197C92.8622 48.8914 92.8622 50.1086 92.5947 51.2803L89.2979 65.7256C89.0304 66.8973 88.5022 67.994 87.7529 68.9336L78.5146 80.5186C77.7653 81.4582 76.8133 82.2168 75.7305 82.7383L62.3809 89.167C61.2981 89.6884 60.1119 89.9599 58.9102 89.96H44.0928C42.8909 89.96 41.7039 89.6885 40.6211 89.167L27.2715 82.7383C26.1888 82.2169 25.2376 81.4581 24.4883 80.5186L15.249 68.9336C14.4998 67.994 13.9725 66.8972 13.7051 65.7256L10.4072 51.2803C10.1398 50.1086 10.1398 48.8914 10.4072 47.7197L13.7051 33.2744C13.9725 32.1028 14.4998 31.006 15.249 30.0664L24.4883 18.4814C25.2376 17.5419 26.1888 16.7831 27.2715 16.2617L40.6211 9.83301C41.7039 9.31155 42.8909 9.04004 44.0928 9.04004H58.9102ZM32.5703 30.6035L41.1484 44.8965H24.001V54.1035H41.1484L32.5703 68.3965L40.6348 73L50.501 57.5C47.501 51.0001 47.501 47.9999 50.501 41.5L40.6348 26L32.5703 30.6035ZM64.7969 26.9932C63.851 26.4428 62.6389 26.7548 62.0762 27.6934L53.3174 42.3008C50.6603 46.7324 50.6603 52.2676 53.3174 56.6992L62.0762 71.3066C62.6389 72.2452 63.851 72.5572 64.7969 72.0068L69.2637 69.4082C70.2216 68.8507 70.5435 67.6203 69.9814 66.665L60.4746 50.5146C60.1061 49.8885 60.1061 49.1115 60.4746 48.4854L69.9814 32.335C70.5435 31.3797 70.2216 30.1493 69.2637 29.5918L64.7969 26.9932ZM70.001 44C68.8965 44.0001 68.001 44.8955 68.001 46V52C68.001 53.1045 68.8965 53.9999 70.001 54H76.001C77.1055 54 78.001 53.1046 78.001 52V46C78.001 44.8954 77.1055 44 76.001 44H70.001Z" fill="white"/>
</svg>
